<mxfile host="app.diagrams.net" modified="2024-03-12T11:04:51.693Z" agent="Mozilla/5.0 (Windows NT 10.0; Win64; x64) AppleWebKit/537.36 (KHTML, like Gecko) Chrome/122.0.0.0 Safari/537.36" etag="bFn5RzNkmAtRnwinpcbX" version="24.0.5" type="device">
  <diagram name="Страница — 1" id="BacxX0QQQ3JA__VZUVV1">
    <mxGraphModel dx="586" dy="292" grid="1" gridSize="10" guides="1" tooltips="1" connect="1" arrows="1" fold="1" page="1" pageScale="1" pageWidth="827" pageHeight="1169" math="0" shadow="0">
      <root>
        <mxCell id="0" />
        <mxCell id="1" parent="0" />
        <mxCell id="2NEdvk8BU1wW2DeTOBhi-8" style="edgeStyle=orthogonalEdgeStyle;rounded=0;orthogonalLoop=1;jettySize=auto;html=1;exitX=0.5;exitY=1;exitDx=0;exitDy=0;entryX=0.5;entryY=0;entryDx=0;entryDy=0;" edge="1" parent="1" source="2NEdvk8BU1wW2DeTOBhi-3" target="2NEdvk8BU1wW2DeTOBhi-4">
          <mxGeometry relative="1" as="geometry" />
        </mxCell>
        <mxCell id="2NEdvk8BU1wW2DeTOBhi-3" value="Начало" style="rounded=1;whiteSpace=wrap;html=1;arcSize=50;" vertex="1" parent="1">
          <mxGeometry x="180" y="80" width="120" height="60" as="geometry" />
        </mxCell>
        <mxCell id="2NEdvk8BU1wW2DeTOBhi-6" style="edgeStyle=orthogonalEdgeStyle;rounded=0;orthogonalLoop=1;jettySize=auto;html=1;exitX=0.5;exitY=1;exitDx=0;exitDy=0;entryX=0.5;entryY=0;entryDx=0;entryDy=0;" edge="1" parent="1" source="2NEdvk8BU1wW2DeTOBhi-4" target="2NEdvk8BU1wW2DeTOBhi-5">
          <mxGeometry relative="1" as="geometry" />
        </mxCell>
        <mxCell id="2NEdvk8BU1wW2DeTOBhi-4" value="Вывод: введите переменную а" style="shape=parallelogram;perimeter=parallelogramPerimeter;whiteSpace=wrap;html=1;fixedSize=1;" vertex="1" parent="1">
          <mxGeometry x="155" y="170" width="160" height="60" as="geometry" />
        </mxCell>
        <mxCell id="2NEdvk8BU1wW2DeTOBhi-12" style="edgeStyle=orthogonalEdgeStyle;rounded=0;orthogonalLoop=1;jettySize=auto;html=1;exitX=0.5;exitY=1;exitDx=0;exitDy=0;entryX=0.5;entryY=0;entryDx=0;entryDy=0;" edge="1" parent="1" source="2NEdvk8BU1wW2DeTOBhi-5" target="2NEdvk8BU1wW2DeTOBhi-10">
          <mxGeometry relative="1" as="geometry" />
        </mxCell>
        <mxCell id="2NEdvk8BU1wW2DeTOBhi-5" value="Ввод: переменная a" style="shape=parallelogram;perimeter=parallelogramPerimeter;whiteSpace=wrap;html=1;fixedSize=1;" vertex="1" parent="1">
          <mxGeometry x="155" y="260" width="160" height="60" as="geometry" />
        </mxCell>
        <mxCell id="2NEdvk8BU1wW2DeTOBhi-9" style="edgeStyle=orthogonalEdgeStyle;rounded=0;orthogonalLoop=1;jettySize=auto;html=1;exitX=0.5;exitY=1;exitDx=0;exitDy=0;entryX=0.5;entryY=0;entryDx=0;entryDy=0;" edge="1" parent="1" source="2NEdvk8BU1wW2DeTOBhi-10" target="2NEdvk8BU1wW2DeTOBhi-11">
          <mxGeometry relative="1" as="geometry" />
        </mxCell>
        <mxCell id="2NEdvk8BU1wW2DeTOBhi-10" value="Вывод: введите переменную b" style="shape=parallelogram;perimeter=parallelogramPerimeter;whiteSpace=wrap;html=1;fixedSize=1;" vertex="1" parent="1">
          <mxGeometry x="160" y="350" width="160" height="60" as="geometry" />
        </mxCell>
        <mxCell id="2NEdvk8BU1wW2DeTOBhi-11" value="Ввод: переменная b" style="shape=parallelogram;perimeter=parallelogramPerimeter;whiteSpace=wrap;html=1;fixedSize=1;" vertex="1" parent="1">
          <mxGeometry x="160" y="450" width="160" height="60" as="geometry" />
        </mxCell>
        <mxCell id="2NEdvk8BU1wW2DeTOBhi-14" value="" style="rhombus;whiteSpace=wrap;html=1;" vertex="1" parent="1">
          <mxGeometry x="300" y="560" width="80" height="80" as="geometry" />
        </mxCell>
      </root>
    </mxGraphModel>
  </diagram>
</mxfile>
